Coordinates
version=1
nRows=13
nColumns=34
inDegrees=yes

Units are S.I. units (second, meters, Newtons, ...)
If the header above contains a line with 'inDegrees', this indicates whether rotational values are in degrees (yes) or radians (no).

endheader
time	pelvis_tilt	pelvis_list	pelvis_rotation	pelvis_tx	pelvis_ty	pelvis_tz	hip_flexion_r	hip_adduction_r	hip_rotation_r	knee_angle_r	ankle_angle_r	subtalar_angle_r	mtp_angle_r	hip_flexion_l	hip_adduction_l	hip_rotation_l	knee_angle_l	ankle_angle_l	subtalar_angle_l	mtp_angle_l	lumbar_extension	lumbar_bending	lumbar_rotation	arm_flex_r	arm_add_r	arm_rot_r	elbow_flex_r	pro_sup_r	arm_flex_l	arm_add_l	arm_rot_l	elbow_flex_l	pro_sup_l
      4.96666670	     -1.96316456	     -4.33166673	    -61.74969837	      0.13492317	      1.00802432	     -0.13388465	    -15.26309421	     -6.68530356	      5.07338964	      1.84295776	      8.74553727	      1.77447791	      0.00000000	    -13.60129989	     -3.82383312	     -7.35638392	      1.50195413	      8.50533104	      3.67439442	      0.00000000	    -12.23146253	      1.91352544	      0.81970553	     12.42912888	     -6.15879899	     10.77102309	     14.62120379	    114.14743724	     11.32874828	     -5.44456690	     13.02493494	     12.87302011	    109.37649434
      4.98333330	     -1.65269278	     -4.65710717	    -61.61408966	      0.13696416	      1.00832262	     -0.13076887	    -16.76943802	     -6.83438068	      5.39856873	      0.38929879	      8.07970139	      1.74140133	      0.00000000	    -14.83335882	     -3.62484936	     -6.80331571	      0.47972769	      8.13908985	      3.87216928	      0.00000000	    -12.19855778	      1.81703966	      0.63799702	     11.63405119	     -5.86538846	      6.83372108	     14.60807363	    112.84287409	     10.41397496	     -5.27053215	      8.37743364	     13.09418799	    107.08975386
      5.00000000	     -1.69057827	     -4.52881093	    -61.62242914	      0.13837581	      1.00802772	     -0.12865753	    -16.99397468	     -6.87446162	      5.26062286	      0.00000000	      7.97074473	      1.76184422	      0.00000000	    -14.95656099	     -3.54454300	     -6.99539694	      0.27768947	      8.03498664	      3.80769134	      0.00000000	    -11.63568493	      1.84388121	      0.69859074	     11.07256942	     -6.06521389	      6.62112721	     14.20895867	    112.79527931	      9.87971691	     -5.37938274	      8.12639563	     12.72339878	    106.98823050
      5.01666670	     -1.66692189	     -4.52916553	    -61.64780163	      0.13929605	      1.00808830	     -0.12691858	    -17.13223783	     -6.90524329	      5.27039238	      0.00000000	      7.92138010	      1.83648301	      0.00000000	    -15.13673182	     -3.50248495	     -6.97603620	      0.21607375	      7.99856043	      3.84837356	      0.00000000	    -11.34636285	      1.84083469	      0.71162493	     10.62120053	     -6.21720853	      6.45487796	     13.96493427	    112.74708530	      9.40936410	     -5.53062241	      7.93678452	     12.47370139	    106.90862907
      5.03333330	     -1.75051025	     -4.32747634	    -61.71738425	      0.14063098	      1.00765288	     -0.12523482	    -17.01931198	     -6.99347258	      3.97440267	      0.00000000	      8.65565599	      3.84065529	      0.00000000	    -15.16821020	     -3.41211226	     -7.53000878	      0.00000000	      8.24217342	      4.61826208	      0.00000000	    -10.76622101	      1.89227931	      0.75955465	      9.80542399	     -5.96871455	      1.36086374	     14.71887075	    111.14013376	      8.50929209	     -5.11924684	      2.23943754	     13.41569793	    104.38452334
      5.05000000	     -1.72496244	     -4.35203843	    -61.70750118	      0.14102679	      1.00782671	     -0.12365405	    -17.16197488	     -6.97173624	      3.98559682	      0.00000000	      8.66594967	      3.85767912	      0.00000000	    -15.30215894	     -3.42456244	     -7.53383953	      0.00000000	      8.25158729	      4.61255945	      0.00000000	    -10.57397190	      1.82561663	      0.73421531	      9.44391597	     -6.05207836	      1.28299880	     14.56924097	    111.13250708	      8.17059052	     -5.43623732	      2.12652918	     13.24296525	    104.35306382
      5.06666670	     -1.70796269	     -4.34012296	    -61.68380914	      0.14170434	      1.00784543	     -0.12257573	    -17.24645972	     -6.98406441	      3.96148453	      0.00000000	      8.71166497	      3.88568607	      0.00000000	    -15.37747784	     -3.39814789	     -7.54857298	      0.00000000	      8.29191840	      4.62351340	      0.00000000	    -10.34691308	      1.82694217	      0.69000558	      9.12426564	     -6.17504322	      1.15022659	     14.48820014	    111.10352100	      7.81455178	     -5.63308818	      1.97668765	     13.13718037	    104.30277973
      5.08333330	     -1.70703729	     -4.32962179	    -61.66906171	      0.14177697	      1.00798791	     -0.12252339	    -17.23258386	     -6.98731291	      3.95828551	      0.00000000	      8.71760279	      3.89572996	      0.00000000	    -15.35863316	     -3.38779475	     -7.55083153	      0.00000000	      8.30115227	      4.62720723	      0.00000000	    -10.37127796	      1.83905830	      0.68869950	      9.03632724	     -6.30981337	      1.11205617	     14.45762557	    111.09412548	      7.70738764	     -5.80187737	      1.93424242	     13.09344051	    104.28927140
      5.10000000	     -1.71310812	     -4.29351842	    -61.63857478	      0.14252964	      1.00792139	     -0.12096770	    -17.31469094	     -6.98551459	      3.91565182	      0.00000000	      8.75819417	      3.99258722	      0.00000000	    -15.43186046	     -3.37564425	     -7.59111528	      0.00000000	      8.36888203	      4.65403427	      0.00000000	     -9.95337575	      1.81481129	      0.57790542	      8.60241763	     -6.36787082	      0.90646212	     14.48606175	    111.03934972	      7.23996715	     -5.98945627	      1.70277940	     13.05849526	    104.20636414
      5.11666670	     -1.98289115	     -3.64946304	    -61.44111052	      0.14311893	      1.00705587	     -0.12046646	    -16.65119607	     -7.01206552	      3.38946927	      0.00000000	      9.09014334	      4.55268078	      0.00000000	    -14.67726263	     -3.34821678	     -7.78675636	      0.00000000	      8.65138723	      5.04722259	      0.00000000	     -8.97548459	      1.76965473	      0.08863326	      8.00940333	     -6.34557074	     -0.27094431	     15.46421043	    110.72782662	      6.48972906	     -6.14233909	      0.42355854	     13.75567312	    103.74655128
      5.13333330	     -1.97694581	     -3.66378877	    -61.44311264	      0.14303915	      1.00734793	     -0.12059183	    -16.64995451	     -7.01746139	      3.37620344	      0.00000000	      9.08753186	      4.56520199	      0.00000000	    -14.68429990	     -3.33837695	     -7.76757393	      0.00000000	      8.64297649	      5.06815642	      0.00000000	     -9.00125445	      1.78375612	      0.10975086	      7.97561859	     -6.46501951	     -0.31804583	     15.42908991	    110.71786485	      6.48490556	     -6.25679161	      0.37544029	     13.74783257	    103.73245655
      5.15000000	     -1.96458058	     -3.68284218	    -61.44103799	      0.14298189	      1.00765470	     -0.12072428	    -16.66281433	     -7.00930213	      3.37038654	      0.00000000	      9.07697097	      4.58388274	      0.00000000	    -14.70680988	     -3.33999103	     -7.75819514	      0.00000000	      8.63573018	      5.08193175	      0.00000000	     -8.96568280	      1.76961396	      0.11986122	      7.97812435	     -6.54693856	     -0.35641925	     15.42159843	    110.71010442	      6.50027300	     -6.32869633	      0.33509671	     13.74974097	    103.72058535
      5.16666670	     -1.95713544	     -3.69442725	    -61.43549546	      0.14289192	      1.00796901	     -0.12091188	    -16.66389929	     -7.01616981	      3.36808499	      0.00000000	      9.05717657	      4.61138675	      0.00000000	    -14.70970055	     -3.33317106	     -7.75339084	      0.00000000	      8.62726959	      5.09535433	      0.00000000	     -8.95586722	      1.77752749	      0.11948287	      7.96257889	     -6.61169890	     -0.39533696	     15.41626628	    110.70271374	      6.51797977	     -6.41800450	      0.28820364	     13.74925820	    103.70704532
